<?xml version="1.0" standalone="no"?>
<!DOCTYPE svg PUBLIC "-//W3C//DTD SVG 20010904//EN"
 "http://www.w3.org/TR/2001/REC-SVG-20010904/DTD/svg10.dtd">
<svg version="1.0" xmlns="http://www.w3.org/2000/svg"
 width="12.000000pt" height="12.000000pt" viewBox="0 0 512.000000 512.000000"
 preserveAspectRatio="xMidYMid meet">
<metadata>
Created by potrace 1.16, written by Peter Selinger 2001-2019
</metadata>
<g transform="translate(0.000000,512.000000) scale(0.100000,-0.100000)"
fill="#ffffff" stroke="none">
<path d="M1396 5104 c-180 -44 -341 -175 -427 -349 -74 -150 -70 3 -67 -2223
l3 -1997 23 -70 c69 -204 219 -362 414 -433 l73 -27 1115 -3 c1237 -3 1189 -5
1323 62 177 89 313 263 352 451 22 105 22 3985 0 4090 -50 238 -250 444 -486
500 -93 21 -2232 21 -2323 -1z m2307 -227 c182 -66 297 -233 297 -429 l0 -58
-1435 0 -1435 0 0 73 c0 192 112 349 300 419 41 15 140 17 1127 17 l1082 1 64
-23z m297 -2317 l0 -1600 -1435 0 -1435 0 0 1600 0 1600 1435 0 1435 0 0
-1600z m-10 -1907 c0 -202 -118 -361 -309 -419 -38 -11 -228 -14 -1123 -14
l-1077 0 -64 23 c-182 66 -297 233 -297 429 l0 58 1435 0 1435 0 0 -77z"/>
<path d="M2475 666 c-71 -31 -118 -107 -118 -191 0 -60 20 -110 59 -149 78
-78 225 -76 301 6 72 77 68 225 -8 295 -55 50 -167 69 -234 39z"/>
</g>
</svg>
